#!OML:ASF H:\Punching\Project 1\Capture day 1\Session 1\female.ASF
:FULLY-SPECIFIED
:DEGREES
784
root -1.3579 15.7679 -1.40209 -168.339 176.992 -181.482
lowerback -6.5007 -2.3737 3.56214
upperback -6.23814 -3.25426 2.99376
thorax -2.83955 -1.69782 0.9744
lowerneck -14.2887 4.19916 10.1597
upperneck 38.1615 5.09637 -5.11873
head 16.5787 2.90684 -3.14829
rclavicle -2.60408e-014 7.95139e-016
rhumerus -46.017 -16.8013 -60.1349
rradius 22.5973
rwrist 17.2384
rhand -12.7989 -3.09083
rfingers 7.12502
rthumb 13.287 -32.6473
lclavicle -2.60408e-014 7.95139e-016
lhumerus -47.0332 5.55316 80.7697
lradius 38.8818
lwrist -16.3574
lhand -3.4963 12.7542
lfingers 7.12502
lthumb 22.2376 41.4949
rfemur -31.204 0.0165014 23.6972
rtibia 24.1235
rfoot -7.88348 -13.0006
rtoes -4.836
lfemur 1.27074 -3.44058 -18.001
ltibia 34.9211
lfoot 6.5251 7.57854
ltoes -2.52074
785
root -1.40082 15.792 -1.28035 -168.425 176.885 -181.813
lowerback -6.43604 -2.39612 3.88271
upperback -6.23552 -3.29191 3.04408
thorax -2.89055 -1.72755 0.850836
lowerneck -14.2712 4.25297 10.2168
upperneck 38.1862 5.17268 -5.13901
head 16.6001 2.94476 -3.15426
rclavicle 2.00276e-014 3.97569e-015
rhumerus -45.7877 -16.4477 -60.6332
rradius 22.8733
rwrist 16.5469
rhand -12.8216 -3.21567
rfingers 7.12502
rthumb 13.2652 -32.7736
lclavicle 2.00276e-014 3.97569e-015
lhumerus -46.9984 5.5069 80.7096
lradius 38.9381
lwrist -16.5113
lhand -3.43482 12.6708
lfingers 7.12502
lthumb 22.2966 41.4044
rfemur -30.1792 -0.473982 24.4347
rtibia 23.2914
rfoot -8.02653 -12.5262
rtoes -4.75634
lfemur -0.549814 -3.26521 -17.4293
ltibia 38.3617
lfoot 8.22376 7.90067
ltoes 0.523549
786
root -1.44284 15.8151 -1.16127 -168.511 176.767 -182.168
lowerback -6.36798 -2.41059 4.21969
upperback -6.22272 -3.31919 3.09975
thorax -2.9339 -1.75247 0.72413
lowerneck -14.2587 4.29754 10.2582
upperneck 38.1913 5.2365 -5.15312
head 16.61 2.9756 -3.15629
rclavicle -4.46272e-014 9.54166e-015
rhumerus -45.5354 -16.0281 -61.1823
rradius 23.1908
rwrist 15.7862
rhand -12.8565 -3.364
rfingers 7.12502
rthumb 13.2315 -32.9241
lclavicle -4.46272e-014 9.54166e-015
lhumerus -46.9203 5.43106 80.681
lradius 39.0127
lwrist -16.6804
lhand -3.38379 12.5912
lfingers 7.12502
lthumb 22.3456 41.3189
rfemur -29.1267 -0.88974 25.1523
rtibia 22.3867
rfoot -8.14524 -12.1533
rtoes -4.69606
lfemur -2.38873 -3.08175 -16.8435
ltibia 41.7056
lfoot 9.69899 8.23973
ltoes 2.99582
787
root -1.48374 15.8376 -1.04479 -168.592 176.653 -182.533
lowerback -6.29805 -2.41473 4.56103
upperback -6.20468 -3.33241 3.15908
thorax -2.97304 -1.77037 0.599408
lowerneck -14.2491 4.32981 10.2825
upperneck 38.1854 5.28636 -5.16706
head 16.6122 2.99795 -3.15743
rclavicle -6.08778e-014 4.69132e-014
rhumerus -45.2695 -15.5482 -61.7623
rradius 23.5372
rwrist 14.992
rhand -12.9186 -3.4964
rfingers 7.12502
rthumb 13.1717 -33.0603
lclavicle -6.08778e-014 4.69132e-014
lhumerus -46.8098 5.33835 80.6807
lradius 39.1053
lwrist -16.8627
lhand -3.35321 12.509
lfingers 7.12502
lthumb 22.3749 41.2332
rfemur -28.0647 -1.19422 25.8293
rtibia 21.4388
rfoot -8.25351 -11.8952
rtoes -4.62924
lfemur -4.23654 -2.87656 -16.2662
ltibia 44.9185
lfoot 10.7715 8.56337
ltoes 4.76787
788
root -1.52316 15.8544 -0.93179 -168.672 176.563 -182.897
lowerback -6.22376 -2.40184 4.89492
upperback -6.17862 -3.32231 3.21518
thorax -3.00558 -1.77625 0.476262
lowerneck -14.2529 4.35065 10.2977
upperneck 38.1783 5.32168 -5.18471
head 16.6149 3.0123 -3.16121
rclavicle -4.17448e-015 0
rhumerus -44.9898 -15.028 -62.3616
rradius 23.8965
rwrist 14.1839
rhand -13.017 -3.60067
rfingers 7.12502
rthumb 13.0768 -33.1707
lclavicle -4.17448e-015 0
lhumerus -46.6605 5.22735 80.7067
lradius 39.2114
lwrist -17.0519
lhand -3.34792 12.4322
lfingers 7.12502
lthumb 22.38 41.1558
rfemur -27.0247 -1.37097 26.4526
rtibia 20.4964
rfoot -8.35378 -11.7392
rtoes -4.52938
lfemur -6.07966 -2.63735 -15.7234
ltibia 47.982
lfoot 11.313 8.8407
ltoes 5.80165
789
root -1.56104 15.8691 -0.821467 -168.747 176.508 -183.233
lowerback -6.14157 -2.37224 5.19645
upperback -6.14936 -3.28808 3.26176
thorax -3.03688 -1.76907 0.362198
lowerneck -14.2637 4.35964 10.2956
upperneck 38.1693 5.3417 -5.19755
head 16.6155 3.01833 -3.16248
rclavicle 4.87022e-015 -2.94201e-014
rhumerus -44.6987 -14.4634 -62.9742
rradius 24.2654
rwrist 13.3672
rhand -13.1347 -3.67417
rfingers 7.12502
rthumb 12.9633 -33.2515
lclavicle 4.87022e-015 -2.94201e-014
lhumerus -46.4811 5.10683 80.7543
lradius 39.334
lwrist -17.2397
lhand -3.36353 12.3627
lfingers 7.12502
lthumb 22.365 41.0882
rfemur -26.0224 -1.44436 27.006
rtibia 19.6005
rfoot -8.4708 -11.6537
rtoes -4.39347
lfemur -7.89905 -2.36909 -15.2525
ltibia 50.8546
lfoot 11.3071 9.07787
ltoes 6.24188
790
root -1.59717 15.8816 -0.713399 -168.816 176.501 -183.523
lowerback -6.05395 -2.32409 5.45217
upperback -6.12022 -3.22703 3.28998
thorax -3.06824 -1.74725 0.255397
lowerneck -14.2741 4.35929 10.2882
upperneck 38.1664 5.34978 -5.21103
head 16.6175 3.01873 -3.16552
rclavicle -4.17448e-015 -3.18055e-015
rhumerus -44.403 -13.876 -63.5852
rradius 24.631
rwrist 12.5764
rhand -13.2604 -3.72632
rfingers 7.12502
rthumb 12.8422 -33.3113
lclavicle -4.17448e-015 -3.18055e-015
lhumerus -46.2857 4.97839 80.8153
lradius 39.4737
lwrist -17.4172
lhand -3.4071 12.2934
lfingers 7.12502
lthumb 22.3232 41.0239
rfemur -25.0868 -1.45843 27.485
rtibia 18.8064
rfoot -8.62008 -11.5909
rtoes -4.25883
lfemur -9.68354 -2.07704 -14.8805
ltibia 53.5132
lfoot 10.8184 9.25912
ltoes 6.26216
791
root -1.63169 15.8922 -0.607326 -168.874 176.544 -183.756
lowerback -5.96403 -2.25892 5.64838
upperback -6.09389 -3.14097 3.29816
thorax -3.09972 -1.71129 0.161407
lowerneck -14.2773 4.35054 10.2706
upperneck 38.1673 5.34698 -5.21869
head 16.6176 3.01415 -3.16636
rclavicle 2.26615e-014 1.43125e-014
rhumerus -44.0997 -13.2654 -64.1947
rradius 24.9924
rwrist 11.8193
rhand -13.388 -3.75586
rfingers 7.12502
rthumb 12.7191 -33.3485
lclavicle 2.26615e-014 1.43125e-014
lhumerus -46.0851 4.8484 80.8872
lradius 39.6419
lwrist -17.5656
lhand -3.47094 12.236
lfingers 7.12502
lthumb 22.2619 40.9738
rfemur -24.2246 -1.44658 27.89
rtibia 18.1194
rfoot -8.79234 -11.5158
rtoes -4.17297
lfemur -11.4276 -1.77616 -14.6205
ltibia 55.9277
lfoot 9.95943 9.41321
ltoes 6.04749
